<?xml version="1.0" encoding="utf-8"?>
<!-- Generator: Adobe Illustrator 27.4.1, SVG Export Plug-In . SVG Version: 6.00 Build 0)  -->
<svg version="1.1" id="layer_1" xmlns="http://www.w3.org/2000/svg" xmlns:xlink="http://www.w3.org/1999/xlink" x="0px"
	y="0px" viewBox="-120 -90 600 700" style="enable-background:new 0 0 349.16 539.86;" xml:space="preserve">

<style type="text/css">
	.st0{
		fill:#93C5FD;
		transition: all 0.5s;
	}
	.st0:hover{fill:#0284C7}
	.selected{fill:#0284C7}
</style>
<path id="jeju" class="st0" d="M265.42,494.79H217.9c-10.67,0-19.34,8.68-19.34,19.34v6.38c0,10.67,8.68,19.34,19.34,19.34h47.52
	c10.67,0,19.34-8.68,19.34-19.34v-6.38C284.76,503.47,276.09,494.79,265.42,494.79z"/>
<path id="gyeongi" class="st0" d="M138.68,204.99v-30.32c0-4.96,4.04-9,9-9h7.59c2.85,0,5.17-2.32,5.17-5.17V97.73c0-4.41-3.59-8-8-8h-10.72
	c-4.96,0-9-4.04-9-9V66.17c0-4.41-3.59-8-8-8H51.67c-4.41,0-8,3.59-8,8v45.76c0,4.41,3.59,8,8,8h6.36h9.58h0
	c2.41,0,4.36-1.96,4.36-4.36v0c0-2.96,2.4-5.36,5.36-5.36h0h29.92h0c2.96,0,5.36,2.4,5.36,5.36v0v23.14v0c0,2.95-2.4,5.36-5.36,5.36
	h0H77.33c-2.41,0-4.36,1.96-4.36,4.36c0,2.96-2.41,5.36-5.36,5.36h0h-5.94c-4.41,0-8,3.59-8,8v40.35c0,4.41,3.59,8,8,8h71.84
	C136.36,210.16,138.68,207.84,138.68,204.99z"/>
<path id="seoul" class="st0" d="M72.97,138.72c0,2.4,1.96,4.36,4.36,4.36h0h29.92c2.41,0,4.36-1.96,4.36-4.36v-23.14
	c0-2.41-1.96-4.36-4.36-4.36H77.33c-2.41,0-4.36,1.96-4.36,4.36v9.73V138.72z"/>
<path id="incheon" class="st0" d="M71.97,148.44v-9.72V125.3c0-2.41-1.96-4.36-4.36-4.36h-9.58c-2.41,0-4.36,1.96-4.36,4.36v23.14
	c0,2.41,1.96,4.36,4.36,4.36h3.64h5.94C70.01,152.8,71.97,150.84,71.97,148.44z"/>
<path id="incheon" class="st0" d="M34.82,141.15H46.1c1.94,0,3.51-1.58,3.51-3.51v-5.54c0-1.94-1.58-3.51-3.51-3.51H34.82
	c-1.94,0-3.51,1.58-3.51,3.51v5.54C31.3,139.57,32.88,141.15,34.82,141.15z"/>
<path id="jeonbook" class="st0" d="M160.44,399.3v-62.9c0-2.85-2.32-5.17-5.17-5.17h-7.59c-4.96,0-9-4.04-9-9v-4.39c0-2.85-2.32-5.17-5.17-5.17
	H53.62c-4.41,0-8,3.59-8,8v75.79c0,4.41,3.59,8,8,8h101.65C158.12,404.47,160.44,402.15,160.44,399.3z"/>
<path id="gangwon" class="st0" d="M166.61,165.66h47.99c4.96,0,9,4.04,9,9v8.97c0,2.85,2.32,5.17,5.17,5.17h78.39c4.41,0,8-3.59,8-8v-75
	c0-10.67-8.68-19.34-19.34-19.34h-16.67c-4.96,0-9-4.04-9-9V8c0-4.41-3.59-8-8-8H141.72c-4.41,0-8,3.59-8,8v58.16v14.56
	c0,4.41,3.59,8,8,8h10.72c4.96,0,9,4.04,9,9v62.76C161.44,163.34,163.76,165.66,166.61,165.66z"/>
<path id="gyungbook" class="st0" d="M223.61,194.97v16.35c0,4.96-4.04,9-9,9h-13.56c-4.41,0-8,3.59-8,8v95.39v12.68v20.86
	c0,2.85,2.32,5.17,5.17,5.17h26.08c2.56,0,4.64-2.08,4.64-4.64v-0.53v-33.61c0-3.4,2.77-6.17,6.17-6.17h0.88
	c2.85,0,5.17-2.32,5.17-5.17v-16.76c0-3.4,2.77-6.17,6.17-6.17h28.09c3.4,0,6.17,2.77,6.17,6.17v16.76c0,3.4-2.77,6.17-6.17,6.17
	h-0.66c-2.85,0-5.17,2.32-5.17,5.17v33.61c0,2.85,2.32,5.17,5.17,5.17h16.76c2.56,0,4.64-2.08,4.64-4.64c0-3.11,2.53-5.64,5.64-5.64
	h0.53h38.82c4.41,0,8-3.59,8-8v-135c0-10.67-8.68-19.34-19.34-19.34h-22.65h-78.39C225.93,189.8,223.61,192.12,223.61,194.97z"/>
<path id="daegu" class="st0" d="M235.11,362.43h28.31c2.85,0,5.17-2.32,5.17-5.17v-33.61c0-3.4,2.77-6.17,6.17-6.17h0.66
	c2.85,0,5.17-2.32,5.17-5.17v-16.76c0-2.85-2.32-5.17-5.17-5.17h-28.09c-2.85,0-5.17,2.32-5.17,5.17v16.76
	c0,3.4-2.77,6.17-6.17,6.17h-0.88c-2.85,0-5.17,2.32-5.17,5.17v33.61C229.94,360.11,232.26,362.43,235.11,362.43z"/>
<path id="ulsan" class="st0" d="M297.17,358.31v8.62v28.34c0,2.85,2.32,5.17,5.17,5.17h24.29h14.53c4.41,0,8-3.59,8-8v-31.29c0-4.41-3.59-8-8-8
	h-38.82C299.49,353.14,297.17,355.46,297.17,358.31z"/>
<path id="busan" class="st0" d="M286.76,401.44c-2.85,0-5.17,2.32-5.17,5.17v19.07c0,2.85,2.32,5.17,5.17,5.17h31.62h8.25c4.41,0,8-3.59,8-8
	v-13.4c0-4.41-3.59-8-8-8h-24.29H291H286.76z"/>
<path id="jeonnam" class="st0" d="M155.27,405.47H53.62H19.34C8.68,405.47,0,414.14,0,424.81v70.55c0,10.67,8.68,19.34,19.34,19.34H141.1
	c10.67,0,19.34-8.68,19.34-19.34v-39.42v-45.3C160.44,407.78,158.12,405.47,155.27,405.47z M93.69,429.52c0,4-3.25,7.25-7.25,7.25
	H62.82c-4,0-7.25-3.25-7.25-7.25v-9.31c0-4,3.25-7.25,7.25-7.25h23.62c4,0,7.25,3.25,7.25,7.25V429.52z"/>
<path id="gwangju" class="st0" d="M86.44,413.96H62.82c-3.45,0-6.25,2.8-6.25,6.25v9.31c0,3.45,2.8,6.25,6.25,6.25h23.62
	c3.45,0,6.25-2.8,6.25-6.25v-9.31C92.69,416.77,89.89,413.96,86.44,413.96z"/>
<path id="chungbook" class="st0" d="M147.68,166.66c-4.41,0-8,3.59-8,8v30.32v10.29v42.49c0,1.24,1.01,2.25,2.25,2.25c3.4,0,6.17,2.77,6.17,6.17
	v23.99c0,3.4-2.77,6.17-6.17,6.17c-1.24,0-2.25,1.01-2.25,2.25v7.9v11.34v4.39c0,4.41,3.59,8,8,8h7.59h11.34h18.92
	c3.59,0,6.51-2.92,6.51-6.51v-95.39c0-4.96,4.04-9,9-9h13.56c4.41,0,8-3.59,8-8v-16.35v-11.34v-8.97c0-4.41-3.59-8-8-8h-47.99
	h-11.34H147.68z"/>
<path id="chungnam" class="st0" d="M138.68,306.5v-7.9v0c0-1.24-1.01-2.25-2.25-2.25h-12.9c-3.4,0-6.17-2.77-6.17-6.17v-23.99
	c0-2.85-2.32-5.17-5.17-5.17h-0.74c-3.4,0-6.17-2.77-6.17-6.17v-19.97c0-3.4,2.77-6.17,6.17-6.17h12.78c3.43,0,6.2,2.77,6.2,6.17
	v22.88c0,1.24,1.01,2.25,2.25,2.25h3.74c1.24,0,2.25-1.01,2.25-2.25v0v-42.49c0-2.27-1.85-4.12-4.12-4.12h-1.05H61.67H28.72
	c-4.41,0-8,3.59-8,8v73.17c0,10.67,8.68,19.34,19.34,19.34h13.56h79.89C136.36,311.67,138.68,309.35,138.68,306.5z"/>
<path id="daejeon" class="st0" d="M147.1,290.18v-23.99c0-2.85-2.32-5.17-5.17-5.17h-5.51h-3.74h-5.5h-3.65c-2.85,0-5.17,2.32-5.17,5.17v23.99
	c0,2.85,2.32,5.17,5.17,5.17h12.9h5.51C144.78,295.35,147.1,293.03,147.1,290.18z"/>
<path id="saejong" class="st0" d="M127.18,260.02c1.24,0,2.25-1.01,2.25-2.25v-22.88c0-2.85-2.32-5.17-5.17-5.17h-12.81
	c-2.85,0-5.17,2.32-5.17,5.17v19.97c0,2.85,2.32,5.17,5.17,5.17h0.74h11.34H127.18z"/>
<path id="gyungnam" class="st0" d="M198.21,363.43c-3.41,0-6.17-2.76-6.17-6.17V336.4c0-2.85-2.31-5.17-5.17-5.17h-1.35h-18.92
	c-2.85,0-5.17,2.31-5.17,5.17v62.9v11.34v45.3c0,4.42,3.58,8,8,8h133.09c10.68,0,19.34-8.66,19.34-19.34v-9.24
	c0-1.94-1.57-3.51-3.51-3.51h-31.62c-3.41,0-6.17-2.76-6.17-6.17v-19.07c0-3.41,2.76-6.17,6.17-6.17H291c2.86,0,5.17-2.31,5.17-5.17
	V369.1c0-3.13-2.54-5.67-5.67-5.67H198.21z"/>
</svg>
